<svg id="visual" viewBox="0 0 900 675" width="900" height="675" xmlns="http://www.w3.org/2000/svg" xmlns:xlink="http://www.w3.org/1999/xlink" version="1.1"><rect x="0" y="0" width="900" height="675" fill="#001220"></rect><path d="M0 443L10.7 436.3C21.3 429.7 42.7 416.3 64.2 407.2C85.7 398 107.3 393 128.8 400C150.3 407 171.7 426 193 426.2C214.3 426.3 235.7 407.7 257 410C278.3 412.3 299.7 435.7 321.2 436.2C342.7 436.7 364.3 414.3 385.8 402C407.3 389.7 428.7 387.3 450 390C471.3 392.7 492.7 400.3 514.2 411.5C535.7 422.7 557.3 437.3 578.8 443.5C600.3 449.7 621.7 447.3 643 448.5C664.3 449.7 685.7 454.3 707 447.2C728.3 440 749.7 421 771.2 411.7C792.7 402.3 814.3 402.7 835.8 400.3C857.3 398 878.7 393 889.3 390.5L900 388L900 676L889.3 676C878.7 676 857.3 676 835.8 676C814.3 676 792.7 676 771.2 676C749.7 676 728.3 676 707 676C685.7 676 664.3 676 643 676C621.7 676 600.3 676 578.8 676C557.3 676 535.7 676 514.2 676C492.7 676 471.3 676 450 676C428.7 676 407.3 676 385.8 676C364.3 676 342.7 676 321.2 676C299.7 676 278.3 676 257 676C235.7 676 214.3 676 193 676C171.7 676 150.3 676 128.8 676C107.3 676 85.7 676 64.2 676C42.7 676 21.3 676 10.7 676L0 676Z" fill="#fa7268"></path><path d="M0 479L10.7 481.5C21.3 484 42.7 489 64.2 478.5C85.7 468 107.3 442 128.8 441.8C150.3 441.7 171.7 467.3 193 469.5C214.3 471.7 235.7 450.3 257 448C278.3 445.7 299.7 462.3 321.2 460.8C342.7 459.3 364.3 439.7 385.8 429.8C407.3 420 428.7 420 450 431.7C471.3 443.3 492.7 466.7 514.2 464.8C535.7 463 557.3 436 578.8 423.2C600.3 410.3 621.7 411.7 643 414.3C664.3 417 685.7 421 707 423.3C728.3 425.7 749.7 426.3 771.2 430.5C792.7 434.7 814.3 442.3 835.8 439.8C857.3 437.3 878.7 424.7 889.3 418.3L900 412L900 676L889.3 676C878.7 676 857.3 676 835.8 676C814.3 676 792.7 676 771.2 676C749.7 676 728.3 676 707 676C685.7 676 664.3 676 643 676C621.7 676 600.3 676 578.8 676C557.3 676 535.7 676 514.2 676C492.7 676 471.3 676 450 676C428.7 676 407.3 676 385.8 676C364.3 676 342.7 676 321.2 676C299.7 676 278.3 676 257 676C235.7 676 214.3 676 193 676C171.7 676 150.3 676 128.8 676C107.3 676 85.7 676 64.2 676C42.7 676 21.3 676 10.7 676L0 676Z" fill="#f16367"></path><path d="M0 497L10.7 489.7C21.3 482.3 42.7 467.7 64.2 468.2C85.7 468.7 107.3 484.3 128.8 494.7C150.3 505 171.7 510 193 515.7C214.3 521.3 235.7 527.7 257 523.3C278.3 519 299.7 504 321.2 498.7C342.7 493.3 364.3 497.7 385.8 495.8C407.3 494 428.7 486 450 485C471.3 484 492.7 490 514.2 495.2C535.7 500.3 557.3 504.7 578.8 503.2C600.3 501.7 621.7 494.3 643 496.5C664.3 498.7 685.7 510.3 707 514.8C728.3 519.3 749.7 516.7 771.2 509.3C792.7 502 814.3 490 835.8 482.8C857.3 475.7 878.7 473.3 889.3 472.2L900 471L900 676L889.3 676C878.7 676 857.3 676 835.8 676C814.3 676 792.7 676 771.2 676C749.7 676 728.3 676 707 676C685.7 676 664.3 676 643 676C621.7 676 600.3 676 578.8 676C557.3 676 535.7 676 514.2 676C492.7 676 471.3 676 450 676C428.7 676 407.3 676 385.8 676C364.3 676 342.7 676 321.2 676C299.7 676 278.3 676 257 676C235.7 676 214.3 676 193 676C171.7 676 150.3 676 128.8 676C107.3 676 85.7 676 64.2 676C42.7 676 21.3 676 10.7 676L0 676Z" fill="#e85467"></path><path d="M0 556L10.7 547.7C21.3 539.3 42.7 522.7 64.2 525.2C85.7 527.7 107.3 549.3 128.8 560C150.3 570.7 171.7 570.3 193 561.7C214.3 553 235.7 536 257 528.2C278.3 520.3 299.7 521.7 321.2 525.3C342.7 529 364.3 535 385.8 537.3C407.3 539.7 428.7 538.3 450 539.2C471.3 540 492.7 543 514.2 541C535.7 539 557.3 532 578.8 526.7C600.3 521.3 621.7 517.7 643 515.8C664.3 514 685.7 514 707 517.5C728.3 521 749.7 528 771.2 529.2C792.7 530.3 814.3 525.7 835.8 527.3C857.3 529 878.7 537 889.3 541L900 545L900 676L889.3 676C878.7 676 857.3 676 835.8 676C814.3 676 792.7 676 771.2 676C749.7 676 728.3 676 707 676C685.7 676 664.3 676 643 676C621.7 676 600.3 676 578.8 676C557.3 676 535.7 676 514.2 676C492.7 676 471.3 676 450 676C428.7 676 407.3 676 385.8 676C364.3 676 342.7 676 321.2 676C299.7 676 278.3 676 257 676C235.7 676 214.3 676 193 676C171.7 676 150.3 676 128.8 676C107.3 676 85.7 676 64.2 676C42.7 676 21.3 676 10.7 676L0 676Z" fill="#de4467"></path><path d="M0 576L10.7 574.7C21.3 573.3 42.7 570.7 64.2 566.2C85.7 561.7 107.3 555.3 128.8 558C150.3 560.7 171.7 572.3 193 573.5C214.3 574.7 235.7 565.3 257 569.8C278.3 574.3 299.7 592.7 321.2 595.8C342.7 599 364.3 587 385.8 581.3C407.3 575.7 428.7 576.3 450 583.3C471.3 590.3 492.7 603.7 514.2 607.5C535.7 611.3 557.3 605.7 578.8 605.3C600.3 605 621.7 610 643 607.5C664.3 605 685.7 595 707 584C728.3 573 749.7 561 771.2 560C792.7 559 814.3 569 835.8 573.3C857.3 577.7 878.7 576.3 889.3 575.7L900 575L900 676L889.3 676C878.7 676 857.3 676 835.8 676C814.3 676 792.7 676 771.2 676C749.7 676 728.3 676 707 676C685.7 676 664.3 676 643 676C621.7 676 600.3 676 578.8 676C557.3 676 535.7 676 514.2 676C492.7 676 471.3 676 450 676C428.7 676 407.3 676 385.8 676C364.3 676 342.7 676 321.2 676C299.7 676 278.3 676 257 676C235.7 676 214.3 676 193 676C171.7 676 150.3 676 128.8 676C107.3 676 85.7 676 64.2 676C42.7 676 21.3 676 10.7 676L0 676Z" fill="#d23467"></path><path d="M0 656L10.7 646.7C21.3 637.3 42.7 618.7 64.2 618.2C85.7 617.7 107.3 635.3 128.8 640.8C150.3 646.3 171.7 639.7 193 637.5C214.3 635.3 235.7 637.7 257 631.7C278.3 625.7 299.7 611.3 321.2 610.5C342.7 609.7 364.3 622.3 385.8 624.2C407.3 626 428.7 617 450 617C471.3 617 492.7 626 514.2 627.2C535.7 628.3 557.3 621.7 578.8 622.3C600.3 623 621.7 631 643 635.7C664.3 640.3 685.7 641.7 707 637.7C728.3 633.7 749.7 624.3 771.2 616.7C792.7 609 814.3 603 835.8 608.7C857.3 614.3 878.7 631.7 889.3 640.3L900 649L900 676L889.3 676C878.7 676 857.3 676 835.8 676C814.3 676 792.7 676 771.2 676C749.7 676 728.3 676 707 676C685.7 676 664.3 676 643 676C621.7 676 600.3 676 578.8 676C557.3 676 535.7 676 514.2 676C492.7 676 471.3 676 450 676C428.7 676 407.3 676 385.8 676C364.3 676 342.7 676 321.2 676C299.7 676 278.3 676 257 676C235.7 676 214.3 676 193 676C171.7 676 150.3 676 128.8 676C107.3 676 85.7 676 64.2 676C42.7 676 21.3 676 10.7 676L0 676Z" fill="#c62368"></path></svg>